<?xml version="1.0" encoding="utf-8"?><svg xml:space="preserve" viewBox="0 0 100 100" y="0" x="0" xmlns="http://www.w3.org/2000/svg" id="圖層_1" version="1.1" width="128px" height="128px" xmlns:xlink="http://www.w3.org/1999/xlink" style="width:100%;height:100%;background-size:initial;background-repeat-y:initial;background-repeat-x:initial;background-position-y:initial;background-position-x:initial;background-origin:initial;background-image:initial;background-color:rgb(241, 242, 243);background-clip:initial;background-attachment:initial;animation-play-state:paused" ><g class="ldl-scale" style="transform-origin:50% 50%;transform:rotate(0deg) scale(0.8, 0.8);animation-play-state:paused" ><ellipse stroke="#333" fill="#e0e0e0" stroke-miterlimit="10" stroke-width="3.5" ry="6.6" rx="24.5" cy="82.4" cx="50" style="stroke:rgb(94, 111, 163);fill:rgb(147, 219, 233);animation-play-state:paused" ></ellipse>
<path stroke-miterlimit="10" stroke-width="3.5" stroke="#333" stroke-linecap="round" fill="#f47e60" d="M50 11c-10.8 0-19.5 8.8-19.5 19.8 0 .8 0 1.5.1 2.3h0c.1.6.2 1.1.3 1.7l.5 2c.2.7.4 1.3.7 2l17.1 42.8c.3.7 1.3.7 1.6 0l17.1-42.8c.3-.6.5-1.3.7-2l.5-2c.1-.6.3-1.1.3-1.7h0c.1-.7.1-1.5.1-2.3 0-11-8.7-19.8-19.5-19.8zm0 28.2c-4.6 0-8.3-3.8-8.3-8.4s3.7-8.4 8.3-8.4 8.3 3.8 8.3 8.4-3.7 8.4-8.3 8.4z" style="stroke:rgb(94, 111, 163);fill:rgb(104, 156, 197);animation-play-state:paused" ></path>
<metadata xmlns:d="https://loading.io/stock/" style="animation-play-state:paused" ><d:name style="animation-play-state:paused" >location</d:name>


<d:tags style="animation-play-state:paused" >location,place,locality,marker,landmark,waypoint,gps</d:tags>


<d:license style="animation-play-state:paused" >by</d:license>


<d:slug style="animation-play-state:paused" >atw0hu</d:slug></metadata></g><!-- generated by https://loading.io/ --></svg>